<?xml version="1.0" encoding="utf-8"?>
<!-- Generator: Adobe Illustrator 16.0.0, SVG Export Plug-In . SVG Version: 6.00 Build 0)  -->
<!DOCTYPE svg PUBLIC "-//W3C//DTD SVG 1.1//EN" "http://www.w3.org/Graphics/SVG/1.1/DTD/svg11.dtd">
<svg version="1.1" xmlns="http://www.w3.org/2000/svg" xmlns:xlink="http://www.w3.org/1999/xlink" x="0px" y="0px" width="300px"
	 height="300px" viewBox="0 0 300 300" enable-background="new 0 0 300 300" xml:space="preserve">
<g id="Layer_1">
</g>
<g id="Layer_2">
	<g>
		<circle fill="#24201A" cx="150" cy="150" r="150"/>
	</g>
	<path fill="#FFFFFF" d="M190.306,143.348c3.998-3.222,7.875-5.61,11.629-7.169c3.752-1.557,7.541-2.337,11.365-2.337
		c2.83,0,5.803,0.497,8.92,1.487l3.611-14.869c-2.904-1.132-5.346-1.699-7.328-1.699c-4.957,0-10.869,2.214-17.736,6.637
		c-6.869,4.427-14.568,11.455-23.1,21.083c-8.535,9.63-15.56,18.411-21.082,26.339c2.124-8.354,4.461-18.586,7.01-30.693
		l6.16-29.312c4.104-19.612,9.396-45.518,11.877-55.714l-2.656-2.019c-9.133,3.542-20.284,6.338-33.454,8.391l-0.85,0.956
		l-0.318,2.655l0.85,0.85l8.921,0.106c3.115,0,5.151,0.354,6.106,1.062c0.957,0.709,1.435,1.807,1.435,3.293
		c0,1.559-0.249,3.717-0.743,6.479l-4.93,33.197c-1.66,11.689-2.904,25.642-7.187,46.422c-2.617,12.692-3.635,17.625-5.713,25.033
		c-8.412,6.176-15.025,10.286-19.82,12.3c-4.887,2.055-9.559,3.081-14.02,3.081c-5.453,0-11.914-2-15.383-6.002
		c-3.47-3.999-5.578-10.948-6.032-16.735c-0.692-8.822,3.958-22.228,9.085-33.182c11.145-23.812,22.439-29.146,35.478-29.146
		c7,0,9.821,3.027,10.671,4.302s1.522,4.08,1.522,6.417c0,0.992,0.142,2.195,0.142,3.61v7.116l0.353,0.557h3.293l0.85-0.703
		c1.296-9.404,2.186-18.604,3.673-25.522l-0.318-1.345c-5.028-3.468-11.096-5.267-17.949-4.186
		c-13.235,2.088-27.713,13.049-30.901,15.754c-15.496,13.146-23.335,27.786-27.332,38.742c-7.349,20.143-4.7,36.099,5.024,44.348
		c6.801,5.769,11.045,7.125,19.754,7.125c6.585,0,13.471-1.93,20.657-5.788c5.837-3.134,12.14-7.374,18.891-12.683
		c-0.982,3.255-2.163,7.105-3.642,11.928l-12.204,41.181c0,0-1.054,1.548,0.806,1.38s19.333-5.657,19.547-7.23
		s4.446-32.674,4.446-32.674c0.85-5.098,1.769-9.594,2.762-13.488c0.99-3.894,1.894-6.813,2.708-8.762
		c0.812-1.947,1.822-3.823,3.026-5.63c1.203-1.805,3.964-5.364,8.285-10.673c4.53,12.815,7.54,21.225,9.026,25.224
		c1.486,4.001,3.574,9.152,6.268,15.453c2.689,6.304,4.777,10.533,6.266,12.691c1.486,2.159,2.635,3.469,3.451,3.931
		c0.812,0.459,1.574,0.689,2.283,0.689c1.486,0,3.805-0.887,6.957-2.655c3.148-1.769,9.717-6.336,19.701-13.7l0.318-1.274
		l-1.062-2.549l-1.168-0.319l-3.293,2.019c-5.309,3.257-8.957,4.885-10.938,4.885c-0.85,0-1.879-0.388-3.08-1.168
		c-1.207-0.778-2.867-3.222-4.992-7.329c-2.123-4.104-5.223-11.256-9.293-21.452c-4.072-10.196-7.312-19.081-9.719-26.659
		C181.931,150.588,186.304,146.57,190.306,143.348z"/>
</g>
</svg>
