<svg xmlns="http://www.w3.org/2000/svg" viewBox="0 0 300 300"><circle cx="150" cy="150" r="150" fill="#24201a"/><path fill="#fff" d="M190.306 143.348q5.997-4.832 11.629-7.169 5.629-2.336 11.365-2.337 4.245.001 8.92 1.487l3.611-14.869q-4.356-1.698-7.328-1.699-7.436.001-17.736 6.637-10.303 6.64-23.1 21.083-12.8 14.446-21.082 26.339 3.186-12.532 7.01-30.693l6.16-29.312c4.104-19.612 9.396-45.518 11.877-55.714l-2.656-2.019q-13.7 5.312-33.454 8.391l-.85.956-.318 2.655.85.85 8.921.106q4.673 0 6.106 1.062 1.435 1.064 1.435 3.293-.001 2.337-.743 6.479l-4.93 33.197c-1.66 11.689-2.904 25.642-7.187 46.422-2.617 12.692-3.635 17.625-5.713 25.033-8.412 6.176-15.025 10.286-19.82 12.3q-7.33 3.082-14.02 3.081c-5.453 0-11.914-2-15.383-6.002-3.47-3.999-5.578-10.948-6.032-16.735-.692-8.822 3.958-22.228 9.085-33.182 11.145-23.812 22.439-29.146 35.478-29.146 7 0 9.821 3.027 10.671 4.302s1.522 4.08 1.522 6.417c0 .992.142 2.195.142 3.61v7.116l.353.557h3.293l.85-.703c1.296-9.404 2.186-18.604 3.673-25.522l-.318-1.345c-5.028-3.468-11.096-5.267-17.949-4.186-13.235 2.088-27.713 13.049-30.901 15.754-15.496 13.146-23.335 27.786-27.332 38.742-7.349 20.143-4.7 36.099 5.024 44.348 6.801 5.769 11.045 7.125 19.754 7.125q9.878 0 20.657-5.788c5.837-3.134 12.14-7.374 18.891-12.683-.982 3.255-2.163 7.105-3.642 11.928l-12.204 41.181s-1.054 1.548.806 1.38 19.333-5.657 19.547-7.23l4.446-32.674q1.274-7.647 2.762-13.488 1.486-5.84 2.708-8.762a33 33 0 0 1 3.026-5.63q1.804-2.709 8.285-10.673 6.796 19.224 9.026 25.224 2.228 6.002 6.268 15.453 4.033 9.455 6.266 12.691 2.228 3.238 3.451 3.931 1.219.689 2.283.689 2.229-.002 6.957-2.655 4.724-2.654 19.701-13.7l.318-1.274-1.062-2.549-1.168-.319-3.293 2.019q-7.965 4.885-10.938 4.885-1.277.001-3.08-1.168c-1.207-.778-2.867-3.222-4.992-7.329q-3.186-6.157-9.293-21.452-6.108-15.293-9.719-26.659 7.112-7.225 13.116-12.057"/></svg>
